<svg xmlns="http://www.w3.org/2000/svg" viewBox="0 0 2048 1152" width="2048" height="1152" font-family="Segoe UI, Arial, sans-serif">
  <defs>
    <marker id="arr" markerWidth="14" markerHeight="14" refX="12" refY="7" orient="auto"><path d="M0,0 L0,14 L14,7 z" fill="#f97316"/></marker>
    <radialGradient id="coreGlow" cx="50%" cy="50%" r="70%"><stop offset="0%" stop-color="#3b1f0f"/><stop offset="100%" stop-color="#111111"/></radialGradient>
    <filter id="shadow" x="-20%" y="-20%" width="140%" height="140%"><feDropShadow dx="0" dy="0" stdDeviation="5" flood-color="#f97316" flood-opacity="0.25"/></filter>
  </defs>
  <rect width="2048" height="1152" fill="#090909"/>
  <rect x="32" y="32" width="1984" height="1088" rx="28" fill="#0d0d0d" stroke="#f97316" stroke-width="3"/>
  <text x="1024" y="82" text-anchor="middle" fill="#f97316" font-size="40" font-weight="800">solr-moodle-docker Installation</text>
  <text x="1024" y="122" text-anchor="middle" fill="#a8a29e" font-size="22">Dateien, Images, Containerstart, Tenant Bootstrap und Moodle-Verifikation</text>
  <line x1="80" y1="154" x2="1968" y2="154" stroke="#f97316" stroke-width="2" opacity="0.45"/>
  <rect x="80" y="215" width="340" height="650" rx="18" fill="#141414" stroke="#fb923c" stroke-width="3" filter="url(#shadow)"/>
  <text x="250.0" y="257" text-anchor="middle" fill="#fdba74" font-size="25" font-weight="800">Konfiguration</text>
  <line x1="106" y1="277" x2="394" y2="277" stroke="#fb923c" stroke-width="2" opacity="0.35"/>
  <text x="112" y="313" fill="#fed7aa" font-size="20">.env</text>
  <text x="112" y="347" fill="#fed7aa" font-size="20">INSTANCE_NAME</text>
  <text x="112" y="381" fill="#fed7aa" font-size="20">SOLR_MODE</text>
  <text x="112" y="415" fill="#fed7aa" font-size="20">Admin und Support User</text>
  <text x="112" y="449" fill="#fed7aa" font-size="20">tenants.env</text>
  <text x="112" y="483" fill="#fed7aa" font-size="20">eLeDia-config</text>
  <text x="112" y="517" fill="#fed7aa" font-size="20">ELEDIA_LOG_ROOT</text>
  <rect x="520" y="215" width="340" height="650" rx="18" fill="#141414" stroke="#fb923c" stroke-width="3" filter="url(#shadow)"/>
  <text x="690.0" y="257" text-anchor="middle" fill="#fdba74" font-size="25" font-weight="800">Image Build</text>
  <line x1="546" y1="277" x2="834" y2="277" stroke="#fb923c" stroke-width="2" opacity="0.35"/>
  <text x="552" y="313" fill="#fed7aa" font-size="20">Dockerfile.solr</text>
  <text x="552" y="347" fill="#fed7aa" font-size="20">Solr Runtime</text>
  <text x="552" y="381" fill="#fed7aa" font-size="20">eLeDia-solr-init</text>
  <text x="552" y="415" fill="#fed7aa" font-size="20">Scripts nach /opt/solr/scripts</text>
  <text x="552" y="449" fill="#fed7aa" font-size="20">Configset Bake-In</text>
  <text x="552" y="483" fill="#fed7aa" font-size="20">keine Host-Script-Mounts</text>
  <rect x="960" y="215" width="340" height="650" rx="18" fill="url(#coreGlow)" stroke="#f97316" stroke-width="3" filter="url(#shadow)"/>
  <text x="1130.0" y="257" text-anchor="middle" fill="#fdba74" font-size="25" font-weight="800">Compose Start</text>
  <line x1="986" y1="277" x2="1274" y2="277" stroke="#f97316" stroke-width="2" opacity="0.35"/>
  <text x="992" y="313" fill="#fed7aa" font-size="20">docker compose up</text>
  <text x="992" y="347" fill="#fed7aa" font-size="20">Init Container läuft vor</text>
  <text x="992" y="381" fill="#fed7aa" font-size="20">Solr läuft als UID 8983</text>
  <text x="992" y="415" fill="#fed7aa" font-size="20">Healthcheck wartet</text>
  <text x="992" y="449" fill="#fed7aa" font-size="20">Ports intern gebunden</text>
  <text x="992" y="483" fill="#fed7aa" font-size="20">Volumes verbunden</text>
  <rect x="1400" y="215" width="340" height="650" rx="18" fill="#141414" stroke="#c2410c" stroke-width="3" filter="url(#shadow)"/>
  <text x="1570.0" y="257" text-anchor="middle" fill="#fdba74" font-size="25" font-weight="800">Tenant Bootstrap</text>
  <line x1="1426" y1="277" x2="1714" y2="277" stroke="#c2410c" stroke-width="2" opacity="0.35"/>
  <text x="1432" y="313" fill="#fed7aa" font-size="20">solr-tenant.sh apply</text>
  <text x="1432" y="347" fill="#fed7aa" font-size="20">User schreiben</text>
  <text x="1432" y="381" fill="#fed7aa" font-size="20">Rollen schreiben</text>
  <text x="1432" y="415" fill="#fed7aa" font-size="20">Collections anlegen</text>
  <text x="1432" y="449" fill="#fed7aa" font-size="20">ACLs neu bauen</text>
  <text x="1432" y="483" fill="#fed7aa" font-size="20">Endpoint Tests</text>
  <rect x="1760" y="330" width="220" height="420" rx="18" fill="#141414" stroke="#ea580c" stroke-width="3" filter="url(#shadow)"/>
  <text x="1870.0" y="372" text-anchor="middle" fill="#fdba74" font-size="25" font-weight="800">Moodle Check</text>
  <line x1="1786" y1="392" x2="1954" y2="392" stroke="#ea580c" stroke-width="2" opacity="0.35"/>
  <text x="1792" y="428" fill="#fed7aa" font-size="20">/admin/ping</text>
  <text x="1792" y="462" fill="#fed7aa" font-size="20">/select</text>
  <text x="1792" y="496" fill="#fed7aa" font-size="20">/update</text>
  <text x="1792" y="530" fill="#fed7aa" font-size="20">/update/extract</text>
  <text x="1792" y="564" fill="#fed7aa" font-size="20">/schema</text>
  <text x="1792" y="598" fill="#fed7aa" font-size="20">Index Task</text>
  <line x1="420" y1="540" x2="520" y2="540" stroke="#f97316" stroke-width="4" marker-end="url(#arr)"/>
  <rect x="380.0" y="502.0" width="180" height="30" rx="15" fill="#0d0d0d" stroke="#78716c" stroke-width="1"/><text x="470.0" y="523.0" text-anchor="middle" fill="#a8a29e" font-size="15">Input</text>
  <line x1="860" y1="540" x2="960" y2="540" stroke="#f97316" stroke-width="4" marker-end="url(#arr)"/>
  <rect x="820.0" y="502.0" width="180" height="30" rx="15" fill="#0d0d0d" stroke="#78716c" stroke-width="1"/><text x="910.0" y="523.0" text-anchor="middle" fill="#a8a29e" font-size="15">Images</text>
  <line x1="1300" y1="540" x2="1400" y2="540" stroke="#f97316" stroke-width="4" marker-end="url(#arr)"/>
  <rect x="1260.0" y="502.0" width="180" height="30" rx="15" fill="#0d0d0d" stroke="#78716c" stroke-width="1"/><text x="1350.0" y="523.0" text-anchor="middle" fill="#a8a29e" font-size="15">Runtime</text>
  <line x1="1740" y1="540" x2="1760" y2="540" stroke="#f97316" stroke-width="4" marker-end="url(#arr)"/>
  <rect x="1660.0" y="502.0" width="180" height="30" rx="15" fill="#0d0d0d" stroke="#78716c" stroke-width="1"/><text x="1750.0" y="523.0" text-anchor="middle" fill="#a8a29e" font-size="15">Verify</text>
  <rect x="130" y="900" width="240" height="42" rx="21" fill="#1a1a1a" stroke="#fb923c" stroke-width="2"/><text x="250.0" y="928" text-anchor="middle" fill="#fed7aa" font-size="18">Runtime Source of Truth</text>
  <rect x="430" y="900" width="220" height="42" rx="21" fill="#1a1a1a" stroke="#fb923c" stroke-width="2"/><text x="540.0" y="928" text-anchor="middle" fill="#fed7aa" font-size="18">Solr API</text>
  <rect x="700" y="900" width="220" height="42" rx="21" fill="#1a1a1a" stroke="#fb923c" stroke-width="2"/><text x="810.0" y="928" text-anchor="middle" fill="#fed7aa" font-size="18">ZooKeeper</text>
  <rect x="970" y="900" width="220" height="42" rx="21" fill="#1a1a1a" stroke="#fb923c" stroke-width="2"/><text x="1080.0" y="928" text-anchor="middle" fill="#fed7aa" font-size="18">Collections</text>
  <rect x="1240" y="900" width="220" height="42" rx="21" fill="#1a1a1a" stroke="#fb923c" stroke-width="2"/><text x="1350.0" y="928" text-anchor="middle" fill="#fed7aa" font-size="18">Security</text>
  <rect x="1510" y="900" width="220" height="42" rx="21" fill="#1a1a1a" stroke="#fb923c" stroke-width="2"/><text x="1620.0" y="928" text-anchor="middle" fill="#fed7aa" font-size="18">Moodle Index</text>
  <line x1="250" y1="900" x2="430" y2="900" stroke="#f97316" stroke-width="4" marker-end="url(#arr)"/>
  <line x1="650" y1="900" x2="700" y2="900" stroke="#f97316" stroke-width="4" marker-end="url(#arr)"/>
  <line x1="920" y1="900" x2="970" y2="900" stroke="#f97316" stroke-width="4" marker-end="url(#arr)"/>
  <line x1="1190" y1="900" x2="1240" y2="900" stroke="#f97316" stroke-width="4" marker-end="url(#arr)"/>
  <line x1="1460" y1="900" x2="1510" y2="900" stroke="#f97316" stroke-width="4" marker-end="url(#arr)"/>
  <text x="1024" y="1088" text-anchor="middle" fill="#6b7280" font-size="18">© 2026 eLeDia GmbH</text>
</svg>
